<?xml version="1.0" encoding="UTF-8" standalone="no"?>
<!DOCTYPE svg PUBLIC "-//W3C//DTD SVG 1.1//EN"
 "http://www.w3.org/Graphics/SVG/1.1/DTD/svg11.dtd">
<!-- Generated by graphviz version 2.38.0 (20140413.2041)
 -->
<!-- Title: G Pages: 1 -->
<svg width="108pt" height="66pt"
 viewBox="0.00 0.00 108.20 66.20" xmlns="http://www.w3.org/2000/svg" xmlns:xlink="http://www.w3.org/1999/xlink">
<g id="graph0" class="graph" transform="scale(1 1) rotate(0) translate(21.6 44.6)">
<title>G</title>
<polygon fill="#232323" stroke="none" points="-21.6,21.6 -21.6,-44.6 86.6,-44.6 86.6,21.6 -21.6,21.6"/>
<!-- index.js -->
<g id="node1" class="node"><title>index.js</title>
<path fill="none" stroke="#cfffac" d="M57.3333,-23C57.3333,-23 7.66667,-23 7.66667,-23 3.83333,-23 0,-19.1667 0,-15.3333 0,-15.3333 0,-7.66667 0,-7.66667 0,-3.83333 3.83333,-0 7.66667,-0 7.66667,-0 57.3333,-0 57.3333,-0 61.1667,-0 65,-3.83333 65,-7.66667 65,-7.66667 65,-15.3333 65,-15.3333 65,-19.1667 61.1667,-23 57.3333,-23"/>
<text text-anchor="middle" x="32.5" y="-7.8" font-family="Arial" font-size="14.00" fill="#cfffac">index.js</text>
</g>
</g>
</svg>
